#!OML:ASF E:/inclinewalkrobotboard/Project1/Captureday1/Session1/subject1.ASF
:FULLY-SPECIFIED
:DEGREES
138
root 0 0 0 -2.1558942327507786 -4.771513679717517 -5.999619724850191
lowerback 10.481970666196911 1.9665852555473156 4.9105259929303635
upperback 0.49057369863515055 3.2729514637167867 1.6879677958114176
thorax -5.236898876292574 1.5221127215161536 -1.44013795921996
lowerneck -17.003782742618707 -3.2238517758590226 -1.6060996044522815
upperneck 19.21697807534272 -4.162071955347551 0.6187233112617792
head 8.891752534750532 -1.9911777037616798 -0.05240176902319771
rclavicle -4.986950092256785E-16 -3.042283111511104E-16
rhumerus -28.745121416944308 -17.686806779785293 -77.99926182145579
rradius 26.98444962806266
rwrist 4.4519012884131755
rhand -17.732497208912385 22.24529194256182
rfingers 7.125020000000021
rthumb 8.521396486795776 -7.5670499746218205
lclavicle -6.707941059610628E-16 -1.975915605587861E-16
lhumerus -30.125837340615323 -1.7375184358064004 82.2845306686194
lradius 32.740676926728
lwrist 5.709474574900595
lhand -25.492124913074647 23.94977480761883
lfingers 7.123747216473748
lthumb 1.021898461969906 53.53902524363871
rfemur -2.825999946427352 7.66923555965329 31.132767750161197
rtibia 26.699481682432815
rfoot -14.352722086704821 -5.971072365399415
rtoes 2.285792424306538
lfemur -19.162790691050652 -1.1850142158134793 -14.223631560378777
ltibia 40.444284040663156
lfoot -3.274955186751498 -1.9209858830444304
ltoes -3.616479372177479
139
root 0 0 0 -2.165664789984117 -4.801386615032175 -5.929714924052183
lowerback 10.478193471284042 1.9455921575415114 4.835078182016568
upperback 0.5031973678908668 3.236205375934219 1.6755217182225004
thorax -5.222198271506182 1.5051758042296515 -1.4062774722097764
lowerneck -16.944109128868984 -3.2184585583099965 -1.633797941955427
upperneck 19.18052631787777 -4.155371312033864 0.6498428870051525
head 8.871439549366874 -1.98905788831201 -0.03582816876576267
rclavicle -4.84836394653101E-16 -3.1414211639928663E-16
rhumerus -28.9411198101307 -17.86552240206141 -78.04240648053752
rradius 26.80596842683576
rwrist 4.410554893658449
rhand -17.699482137270444 22.38714950236907
rfingers 7.125020000000022
rthumb 8.551584966760075 -7.428012804307549
lclavicle -6.612981916207065E-16 -2.00584331993297E-16
lhumerus -30.209068526012853 -1.640150519918528 82.28891725485981
lradius 32.55618932509968
lwrist 5.691664642622803
lhand -25.54784868051925 23.917906151294158
lfingers 7.1238114422247225
lthumb 0.9699658423029174 53.52549973063967
rfemur -3.6958446110551897 7.313223468050673 30.652859153079806
rtibia 28.69034297383007
rfoot -13.438227960534794 -5.881692090079058
rtoes 2.691670317090021
lfemur -17.37765322165191 -1.5065934477370455 -15.262046622342671
ltibia 37.687435179773225
lfoot -4.706835675805856 -1.3104308018594164
ltoes -3.427000141475584
140
root 0 0 0 -2.1746663807604176 -4.805531278429255 -5.863417611101971
lowerback 10.475163405989777 1.9225780287549936 4.762699153161474
upperback 0.511759973029343 3.197266757425628 1.6671818948328578
thorax -5.212121401401426 1.4873233009789733 -1.3695149017281287
lowerneck -16.90397940887467 -3.2126518609972705 -1.6538463477875185
upperneck 19.15811712023577 -4.147137236204592 0.6691453872142574
head 8.858175813360173 -1.98623042476031 -0.024669977995847248
rclavicle -4.719113909190523E-16 -3.2125060296188085E-16
rhumerus -29.115818644612332 -18.026739657239055 -78.07814982346987
rradius 26.648527962832798
rwrist 4.374676971704033
rhand -17.67082218693072 22.51290813638854
rfingers 7.125020000000024
rthumb 8.57797541509883 -7.304740318906884
lclavicle -6.575272793106178E-16 -1.9959823661790308E-16
lhumerus -30.25471036785684 -1.5817514280202793 82.28941806362663
lradius 32.45053506098023
lwrist 5.682124741416634
lhand -25.580551677604483 23.900453068931817
lfingers 7.123864922069726
lthumb 0.9394499490585932 53.51786557804027
rfemur -4.916873731787668 6.734787380877227 30.045143399919304
rtibia 31.75883980688571
rfoot -11.988834304014594 -5.690184457553935
rtoes 3.449970438901711
lfemur -15.116906248773455 -1.8557375422966906 -16.538364395233412
ltibia 34.62090438168062
lfoot -6.3381154961766715 -0.7026908969815073
ltoes -3.25613412005939
141
root 0 0 0 -2.183855702750443 -4.805234461216619 -5.7961355563588715
lowerback 10.472130821303915 1.8988414186188378 4.688760254093552
upperback 0.5197130865118216 3.15716122767168 1.6592557696568728
thorax -5.202641554807503 1.4689552837448432 -1.331376674709918
lowerneck -16.86647588713302 -3.206827894086559 -1.6731153570674477
upperneck 19.137610323727873 -4.138839692098349 0.6871509739111517
head 8.845788013341497 -1.983380706002375 -0.014105203821511036
rclavicle -4.601881562591417E-16 -3.2618238630787663E-16
rhumerus -29.25672962392138 -18.158773976125516 -78.105819422239
rradius 26.521248680597274
rwrist 4.345846163946631
rhand -17.648311605952834 22.614537278541455
rfingers 7.125020000000026
rthumb 8.598993994842196 -7.205163587652599
lclavicle -6.543734276991665E-16 -1.9637704419669534E-16
lhumerus -30.27744581383897 -1.5453759690746303 82.28781557291732
lradius 32.39158775467786
lwrist 5.678130888011003
lhand -25.601012142149322 23.892253724035864
lfingers 7.123914841526664
lthumb 0.9207102537178375 53.51432296092115
rfemur -6.572132646902494 5.969003215847948 29.235619921569196
rtibia 35.74750156294058
rfoot -10.070194373807373 -5.448127977661863
rtoes 4.429785226739312
lfemur -12.171718425741293 -2.295856070446683 -18.184314653258586
ltibia 30.727910796563776
lfoot -8.457347414000301 0.08346091463070504
ltoes -3.063488041367882
142
root 0 0 0 -2.199990855375594 -4.808503339423103 -5.6792459105453785
lowerback 10.466319942554714 1.8587218834345407 4.560019534793678
upperback 0.5339613535090941 3.088879265017197 1.6445638720044684
thorax -5.1856575167734125 1.4377233427260612 -1.2663057876862036
lowerneck -16.799057246645564 -3.1969345513923013 -1.7073200648838487
upperneck 19.09981345738378 -4.124911274954591 0.720123964950365
head 8.823218916107129 -1.97872911086235 0.005044668833606547
rclavicle -4.486090572831352E-16 -3.2736048434872844E-16
rhumerus -29.36208119717109 -18.25999821174515 -78.12327804470215
rradius 26.43086208170669
rwrist 4.3243093110985455
rhand -17.633801394057677 22.689260694820984
rfingers 7.125020000000027
rthumb 8.61353656619696 -7.131775997570962
lclavicle -6.497334503560606E-16 -1.902478832188325E-16
lhumerus -30.311668422830977 -1.4962061892612653 82.28572752891552
lradius 32.30718774880997
lwrist 5.668277691979215
lhand -25.627796519582898 23.87708947901146
lfingers 7.1239743689925055
lthumb 0.8954126607966213 53.51009105424268
rfemur -9.834633579161078 4.634013077172751 27.60903081771451
rtibia 42.654855567074776
rfoot -6.674998662127906 -5.123482161647723
rtoes 5.969008324902133
lfemur -7.14510831880099 -3.052079101496658 -21.011884648718414
ltibia 23.967916610150464
lfoot -12.189124655429687 1.5195334589484188
ltoes -2.7097546512286557
143
root 0 0 0 -2.215827330978719 -4.788030863533349 -5.555638425612347
lowerback 10.462366994921865 1.8130752590896924 4.424148162992796
upperback 0.545197281753512 3.0125641145557513 1.6333153214200093
thorax -5.172480229224432 1.4028138192836752 -1.1924746751072455
lowerneck -16.747707306550492 -3.1862605804872413 -1.736235800755976
upperneck 19.07352718639153 -4.108699011945294 0.7435883005430375
head 8.806495995901749 -1.9731104282586174 0.0201115127446978
rclavicle -4.397668041991366E-16 -3.2887864348933923E-16
rhumerus -29.44444509151649 -18.33865352151686 -78.13912877074907
rradius 26.356058679521666
rwrist 4.307458468843902
rhand -17.62155632509086 22.748630704065366
rfingers 7.125020000000028
rthumb 8.625747667943928 -7.073624049528036
lclavicle -6.438973225939975E-16 -1.8818091869996853E-16
lhumerus -30.308746708922573 -1.491942604629525 82.28437001266767
lradius 32.30420549994679
lwrist 5.668559288717523
lhand -25.631047832971877 23.878075875058986
lfingers 7.123994221005774
lthumb 0.8926479722733589 53.51271407069155
rfemur -12.884871272326613 3.557849706009784 26.02770167220289
rtibia 48.29669642075323
rfoot -3.888569231301547 -4.972720976823422
rtoes 7.030902555926732
lfemur -3.7298620494034953 -3.4511431922253424 -22.85422439753878
ltibia 20.155708138522943
lfoot -14.476760065941656 2.2410738158311494
ltoes -2.668292340619808
